<svg width="24" height="24" viewBox="0 0 24 24" fill="none" xmlns="http://www.w3.org/2000/svg">
<path d="M7.50001 10.9702V12.5H8.25001V12.3035L7.50001 10.9702Z" fill="black"/>
<path fill-rule="evenodd" clip-rule="evenodd" d="M11.5 6L7.50001 4V8.5L11.5 6ZM8.25001 7.14682L9.96849 6.07277L8.25001 5.21353V7.14682Z" fill="black"/>
<path d="M7.50001 4L11.5 6L7.50001 8.5V10.9702L8.25001 12.3035V8.91569L13.0315 5.92724L6.75001 2.78648V12.3035L7.50001 10.9702V8.5V4Z" fill="black"/>
<path fill-rule="evenodd" clip-rule="evenodd" d="M1.71762 21.25L6.75001 12.3035L7.50001 10.9702V12.5L3.00001 20.5H7.14705L7.5533 19.75H9.25922H10.7176L9.97466 18.4292L9.10561 16.8842L9.52774 16.1049L7.50001 12.5H8.25001V12.3035L9.94988 15.3255L14.5 6.92531L22.2592 21.25H13.2824H6.7408H1.71762ZM10.8189 16.8705L12.4386 19.75H19.7408L14.5 10.0747L10.8189 16.8705ZM9.96849 6.07277L8.25001 7.14682V5.21353L9.96849 6.07277Z" fill="black"/>
<path d="M7.50001 12.5L3.00001 20.5H7.14705L7.5533 19.75H4.28239L7.50001 14.0298L9.10561 16.8842L9.52774 16.1049L7.50001 12.5Z" fill="black"/>
</svg>
