<svg width="28" height="25" viewBox="0 0 28 25" fill="none" xmlns="http://www.w3.org/2000/svg">
<path fill-rule="evenodd" clip-rule="evenodd" d="M3.11578 1.91826C3.48615 0.877622 4.62999 0.334272 5.67061 0.704648L16.6236 4.60295L17.2945 2.7287C17.8205 1.25938 19.7705 0.876157 20.7663 2.04637L25.7353 7.88536C26.621 8.92611 26.1487 10.5038 24.8963 11.0037C24.5559 11.212 24.1555 11.3177 23.7469 11.2961L16.8843 12.8909C15.3412 13.2496 14.0378 11.8264 14.5638 10.3571L15.2755 8.36892L4.32939 4.47308C3.28876 4.10272 2.74541 2.95887 3.11578 1.91826ZM1.32129 9.4483C0.672791 9.22827 0 9.71046 0 10.3953V24C0 24.5523 0.447723 25 1 25H27C27.5523 25 28 24.5523 28 24V19.2167C28 18.7882 27.7271 18.4074 27.3213 18.2697L1.32129 9.4483Z" fill="#fff"/>
</svg>
