<svg width="28" height="26" viewBox="0 0 28 26" fill="none" xmlns="http://www.w3.org/2000/svg">
<path fill-rule="evenodd" clip-rule="evenodd" d="M23.2803 1.70386C24.6316 1.93082 25.2855 3.4495 24.6405 4.63967C24.5138 5.01444 24.2771 5.34963 23.9537 5.59449L19.7289 11.2319C18.7788 12.4997 16.8653 12.2495 16.322 10.7865L15.5873 8.80793L4.69966 12.8736C3.66489 13.26 2.51279 12.7344 2.12637 11.6997C1.73996 10.6649 2.26556 9.51279 3.30034 9.12638L14.1949 5.05813L13.5014 3.19083C12.9582 1.72783 14.2038 0.179356 15.7191 0.433888L23.2803 1.70386ZM0.648865 20.2567C0.258575 20.403 0 20.7762 0 21.193V25C0 25.5523 0.447723 26 1 26H27C27.5523 26 28 25.5523 28 25V11.443C28 10.7448 27.3026 10.2615 26.6489 10.5067L0.648865 20.2567Z" fill="#fff"/>
</svg>
