<?xml version="1.0" encoding="UTF-8"?>
<svg width="1200pt" height="1200pt" version="1.1" viewBox="0 0 1200 1200" xmlns="http://www.w3.org/2000/svg">
 <g>
  <path d="m165.5 781c17.723 11.617 38.316 18.105 59.496 18.75 2.5039 0.24609 5.25 0.24609 8.2539 0.24609 23.996 0.76172 47.645-5.8672 67.75-18.996 10.227-5.8633 20.832-11.043 31.75-15.5 26.551-10.863 55.059-16.141 83.742-15.504 40.734-0.74609 80.852 10 115.75 31.004 20.07 13.199 43.746 19.836 67.75 18.996 23.922 0.80469 47.508-5.832 67.5-18.996 34.887-21.043 75.016-31.789 115.75-31.004 28.754-0.53906 57.324 4.7344 83.996 15.504 10.812 4.5078 21.332 9.6836 31.5 15.5 20.102 13.129 43.754 19.758 67.75 18.996 11.285 0.28516 22.555-0.97656 33.5-3.7461 12.113-3.5586 23.711-8.6836 34.496-15.25 5.75-3.2578 11.754-6.5078 18.508-9.7539v0.003906c31.105-65.984 47.156-138.05 46.996-211v-210.25c-0.019531-6.625-2.6602-12.973-7.3438-17.656s-11.031-7.3242-17.656-7.3438h-950c-6.625 0.019531-12.973 2.6602-17.656 7.3438s-7.3242 11.031-7.3438 17.656v210.25c-0.16016 72.945 15.891 145.02 46.996 211 6.75 3.2461 12.758 6.4922 18.508 9.75zm84.496-356h700v114.75c0.78516 46.301-7.7148 92.293-25 135.25h-650c-17.285-42.961-25.785-88.953-25-135.25z"/>
  <path d="m500 100h200c17.863 0 34.371-9.5312 43.301-25 8.9336-15.469 8.9336-34.531 0-50-8.9297-15.469-25.438-25-43.301-25h-200c-17.863 0-34.371 9.5312-43.301 25-8.9336 15.469-8.9336 34.531 0 50 8.9297 15.469 25.438 25 43.301 25z"/>
  <path d="m287.5 275h625c22.328 0 42.961-11.914 54.125-31.25 11.168-19.336 11.168-43.164 0-62.5-11.164-19.336-31.797-31.25-54.125-31.25h-625c-22.328 0-42.961 11.914-54.125 31.25-11.168 19.336-11.168 43.164 0 62.5 11.164 19.336 31.797 31.25 54.125 31.25z"/>
  <path d="m1150 1050c-40.711-0.8125-80.812 9.9766-115.62 31.102-20.449 12.363-43.891 18.898-67.785 18.898-23.895 0-47.336-6.5352-67.785-18.898-34.82-21.129-74.93-31.914-115.65-31.102-40.695-0.8125-80.781 9.9766-115.57 31.102-20.105 13.074-43.734 19.668-67.699 18.898-23.977 0.76953-47.613-5.8281-67.727-18.898-34.809-21.125-74.914-31.914-115.62-31.102-40.703-0.80859-80.797 9.9805-115.6 31.102-20.105 13.074-43.734 19.668-67.703 18.898-23.949 0.76172-47.562-5.832-67.648-18.898-34.801-21.113-74.883-31.902-115.58-31.102-17.863 0-34.371 9.5312-43.301 25-8.9336 15.469-8.9336 34.531 0 50 8.9297 15.469 25.438 25 43.301 25 23.961-0.76562 47.578 5.8281 67.676 18.898 34.789 21.113 74.863 31.898 115.55 31.102 40.703 0.80859 80.797-9.9805 115.6-31.102 20.105-13.074 43.73-19.668 67.699-18.898 23.977-0.76953 47.613 5.8281 67.727 18.898 34.809 21.125 74.914 31.914 115.62 31.102 40.703 0.79688 80.793-9.9922 115.6-31.102 20.434-12.363 43.859-18.898 67.738-18.898s47.305 6.5352 67.738 18.898c35.133 20.371 75.023 31.102 115.64 31.102 40.613 0 80.504-10.73 115.64-31.102 20.133-13.07 43.781-19.668 67.773-18.898 17.863 0 34.371-9.5312 43.301-25 8.9336-15.469 8.9336-34.531 0-50-8.9297-15.469-25.438-25-43.301-25z"/>
  <path d="m50 950c23.961-0.76562 47.578 5.8281 67.676 18.898 34.789 21.113 74.863 31.898 115.55 31.102 40.703 0.80859 80.797-9.9805 115.6-31.102 20.105-13.074 43.73-19.668 67.699-18.898 23.977-0.76953 47.613 5.8281 67.727 18.898 34.809 21.125 74.914 31.914 115.62 31.102 40.703 0.79688 80.793-9.9922 115.6-31.102 20.434-12.363 43.859-18.898 67.738-18.898s47.305 6.5352 67.738 18.898c35.133 20.371 75.023 31.102 115.64 31.102 40.613 0 80.504-10.73 115.64-31.102 20.133-13.07 43.781-19.668 67.773-18.898 17.863 0 34.371-9.5312 43.301-25 8.9336-15.469 8.9336-34.531 0-50-8.9297-15.469-25.438-25-43.301-25-40.711-0.8125-80.812 9.9766-115.62 31.102-20.449 12.363-43.891 18.898-67.785 18.898-23.895 0-47.336-6.5352-67.785-18.898-34.82-21.129-74.93-31.914-115.65-31.102-40.695-0.8125-80.781 9.9766-115.57 31.102-20.105 13.074-43.734 19.668-67.699 18.898-23.977 0.76953-47.613-5.8281-67.727-18.898-34.809-21.125-74.914-31.914-115.62-31.102-40.703-0.80859-80.797 9.9805-115.6 31.102-20.105 13.074-43.734 19.668-67.703 18.898-23.949 0.76172-47.562-5.832-67.648-18.898-34.801-21.113-74.883-31.902-115.58-31.102-17.863 0-34.371 9.5312-43.301 25-8.9336 15.469-8.9336 34.531 0 50 8.9297 15.469 25.438 25 43.301 25z"/>
 </g>
</svg>
