<svg width="24" height="24" viewBox="0 0 24 24" fill="none" stroke-width="1.5" xmlns="http://www.w3.org/2000/svg">
<path d="M7.5 13L3.45435 19.7428C3.25439 20.076 3.49445 20.5 3.8831 20.5H12M7.5 13L9.75 16.75M7.5 13V3.5M12 20.5H20.1605C20.5394 20.5 20.7806 20.095 20.6002 19.7619L14.9263 9.28707C14.74 8.94306 14.2486 8.93668 14.0534 9.27573L9.75 16.75M12 20.5L9.75 16.75" stroke="black" />
<path d="M12 6.5L7.5 3.5V9.5L12 6.5Z" fill="black"/>
<path d="M7.5 3.5L7.91603 2.87596L6.75 2.09861V3.5H7.5ZM12 6.5L12.416 7.12404C12.6247 6.98494 12.75 6.75076 12.75 6.5C12.75 6.24924 12.6247 6.01506 12.416 5.87596L12 6.5ZM7.5 9.5H6.75V10.9014L7.91603 10.124L7.5 9.5ZM7.08397 4.12404L11.584 7.12404L12.416 5.87596L7.91603 2.87596L7.08397 4.12404ZM11.584 5.87596L7.08397 8.87596L7.91603 10.124L12.416 7.12404L11.584 5.87596ZM8.25 9.5V3.5H6.75V9.5H8.25Z" fill="black"/>
</svg>
